<svg xmlns="http://www.w3.org/2000/svg" viewBox="0 0 256.27 78.5"><defs><style>.cls-1{fill:#1d1d1b;}.cls-2{fill:#f1871b;}.cls-3{fill:#f7ae63;}.cls-4{fill:#ed7705;}.cls-5{fill:#f59b41;}</style></defs><title>Fichier 9taille 2</title><g id="Calque_2" data-name="Calque 2"><g id="Calque_1-2" data-name="Calque 1"><path class="cls-1" d="M72.62,22.34V78.5H58.87l0-32.43L50.29,78.5H29.82l0-34.76L14.87,78.5H0L24.21,22.36l18.44,0,0,35.52,9.48-35.52Z"/><path class="cls-1" d="M95.53,22.35V78.5H81.85V22.35Z"/><path class="cls-1" d="M155.68,78.5H142L119.12,43.86V78.5H105.44V22.35h13.68L142,57.14V22.35h13.68Z"/><path class="cls-1" d="M179.27,33.3V44.66h18.32V55.22H179.27V67.54H200v11H165.6V22.35H200V33.3Z"/><path class="cls-2" d="M237.86,68.58H222.33V78.5H209.54V22.35h21.87L256.27,78.5h-14ZM233.12,58,222.33,34V58Z"/><path class="cls-3" d="M93.25,0H84.12a.58.58,0,0,0-.51.3L79.05,8.2a.57.57,0,0,0,0,.59l4.56,7.91a.6.6,0,0,0,.51.29h9.13a.58.58,0,0,0,.51-.29l4.57-7.91a.62.62,0,0,0,0-.59L93.76.3A.57.57,0,0,0,93.25,0Z"/><path class="cls-4" d="M98.41,8.5H94.52L91.6,13.55l2,3.37a.63.63,0,0,0,.21-.22l4.57-7.91A.6.6,0,0,0,98.41,8.5Z"/><path class="cls-2" d="M91.6,13.55H85.77l-1.94,3.37a.59.59,0,0,0,.29.07h9.13a.6.6,0,0,0,.3-.07Z"/><path class="cls-2" d="M85.77,13.55,82.86,8.5H79a.51.51,0,0,0,.08.29l4.56,7.91a.66.66,0,0,0,.22.22Z"/><path class="cls-2" d="M85.77,3.45,83.83.08a.52.52,0,0,0-.22.22L79.05,8.2a.52.52,0,0,0-.08.3h3.89Z"/><path class="cls-5" d="M85.77,3.45H91.6l2-3.37a.61.61,0,0,0-.3-.08H84.12a.6.6,0,0,0-.29.08Z"/><path class="cls-2" d="M91.6,3.45,94.52,8.5h3.89a.61.61,0,0,0-.08-.3L93.76.3a.5.5,0,0,0-.21-.22Z"/><polygon class="cls-2" points="91.6 3.45 85.77 3.45 82.86 8.5 85.77 13.54 91.6 13.54 94.52 8.5 91.6 3.45"/></g></g></svg>